<mxfile host="app.diagrams.net" modified="2023-05-07T10:49:52.606Z" agent="Mozilla/5.0 (Macintosh; Intel Mac OS X 10.15; rv:109.0) Gecko/20100101 Firefox/112.0" etag="nEPjVcRwhVGA7_yfFYvy" version="21.2.9" type="github">
  <diagram name="Page-1" id="bUZffZrJAwUsTFZ6Xpi9">
    <mxGraphModel dx="954" dy="617" grid="1" gridSize="10" guides="1" tooltips="1" connect="1" arrows="1" fold="1" page="1" pageScale="1" pageWidth="850" pageHeight="1100" math="0" shadow="0">
      <root>
        <mxCell id="0" />
        <mxCell id="1" parent="0" />
        <mxCell id="LeIyvTT770xeIWzOw6v6-1" value="&lt;font face=&quot;Georgia&quot; color=&quot;#00cc00&quot;&gt;AWS S3&lt;br&gt;&lt;/font&gt;" style="sketch=0;outlineConnect=0;fontColor=#232F3E;gradientColor=none;fillColor=#3F8624;strokeColor=none;dashed=0;verticalLabelPosition=bottom;verticalAlign=top;align=center;html=1;fontSize=12;fontStyle=0;aspect=fixed;pointerEvents=1;shape=mxgraph.aws4.bucket;" vertex="1" parent="1">
          <mxGeometry x="361.5" y="330" width="75" height="78" as="geometry" />
        </mxCell>
        <mxCell id="LeIyvTT770xeIWzOw6v6-2" value="&lt;b&gt;&lt;font color=&quot;#0000cc&quot;&gt;&lt;font face=&quot;Georgia&quot;&gt;Eureka Server&lt;/font&gt;&lt;br&gt;&lt;/font&gt;&lt;/b&gt;" style="outlineConnect=0;dashed=0;verticalLabelPosition=bottom;verticalAlign=top;align=center;html=1;shape=mxgraph.aws3.application_discovery_service;fillColor=#5294CF;gradientColor=none;" vertex="1" parent="1">
          <mxGeometry x="360" width="76.5" height="93" as="geometry" />
        </mxCell>
        <mxCell id="LeIyvTT770xeIWzOw6v6-3" value="&lt;font face=&quot;Lucida Console&quot; color=&quot;#67ab9f&quot;&gt;&lt;b&gt;PostgreSQL&lt;/b&gt;&lt;/font&gt;" style="image;sketch=0;aspect=fixed;html=1;points=[];align=center;fontSize=12;image=img/lib/mscae/Azure_Database_for_PostgreSQL_servers.svg;" vertex="1" parent="1">
          <mxGeometry x="360.5" y="150" width="76" height="100" as="geometry" />
        </mxCell>
        <mxCell id="LeIyvTT770xeIWzOw6v6-5" style="edgeStyle=orthogonalEdgeStyle;rounded=1;orthogonalLoop=1;jettySize=auto;html=1;entryX=-0.013;entryY=0.46;entryDx=0;entryDy=0;entryPerimeter=0;strokeWidth=2;strokeColor=#1A3300;" edge="1" parent="1" source="LeIyvTT770xeIWzOw6v6-4" target="LeIyvTT770xeIWzOw6v6-3">
          <mxGeometry relative="1" as="geometry">
            <Array as="points">
              <mxPoint x="265" y="300" />
              <mxPoint x="265" y="196" />
            </Array>
          </mxGeometry>
        </mxCell>
        <mxCell id="LeIyvTT770xeIWzOw6v6-8" value="&lt;font face=&quot;Courier New&quot; color=&quot;#336600&quot;&gt;Metadata&lt;/font&gt;" style="edgeLabel;html=1;align=center;verticalAlign=middle;resizable=0;points=[];fontStyle=1" vertex="1" connectable="0" parent="LeIyvTT770xeIWzOw6v6-5">
          <mxGeometry x="0.3902" relative="1" as="geometry">
            <mxPoint x="41" y="-16" as="offset" />
          </mxGeometry>
        </mxCell>
        <mxCell id="LeIyvTT770xeIWzOw6v6-6" style="edgeStyle=orthogonalEdgeStyle;rounded=1;orthogonalLoop=1;jettySize=auto;html=1;strokeWidth=2;strokeColor=#1A3300;" edge="1" parent="1" source="LeIyvTT770xeIWzOw6v6-4" target="LeIyvTT770xeIWzOw6v6-1">
          <mxGeometry relative="1" as="geometry">
            <Array as="points">
              <mxPoint x="265" y="300" />
              <mxPoint x="265" y="369" />
            </Array>
          </mxGeometry>
        </mxCell>
        <mxCell id="LeIyvTT770xeIWzOw6v6-9" value="&lt;font face=&quot;Comic Sans MS&quot; color=&quot;#1a3300&quot;&gt;&lt;b&gt;PDF&lt;/b&gt;&lt;/font&gt;" style="edgeLabel;html=1;align=center;verticalAlign=middle;resizable=0;points=[];" vertex="1" connectable="0" parent="LeIyvTT770xeIWzOw6v6-6">
          <mxGeometry x="0.62" y="-3" relative="1" as="geometry">
            <mxPoint y="-12" as="offset" />
          </mxGeometry>
        </mxCell>
        <mxCell id="LeIyvTT770xeIWzOw6v6-7" style="edgeStyle=orthogonalEdgeStyle;rounded=1;orthogonalLoop=1;jettySize=auto;html=1;shape=flexArrow;shadow=0;strokeWidth=2;startArrow=block;width=10;endSize=4.32;" edge="1" parent="1" source="LeIyvTT770xeIWzOw6v6-4" target="LeIyvTT770xeIWzOw6v6-2">
          <mxGeometry relative="1" as="geometry">
            <mxPoint x="75" y="140" as="targetPoint" />
            <Array as="points">
              <mxPoint x="90" y="206" />
              <mxPoint x="76" y="206" />
            </Array>
          </mxGeometry>
        </mxCell>
        <mxCell id="LeIyvTT770xeIWzOw6v6-4" value="&lt;div&gt;&lt;font face=&quot;Comic Sans MS&quot; color=&quot;#000099&quot;&gt;Report&lt;/font&gt;&lt;/div&gt;&lt;div&gt;&lt;font face=&quot;Comic Sans MS&quot;&gt;&lt;font color=&quot;#000099&quot;&gt;(BIRT)&lt;/font&gt;&lt;br&gt;&lt;/font&gt;&lt;/div&gt;" style="rounded=1;whiteSpace=wrap;html=1;fillColor=#dae8fc;strokeColor=#6c8ebf;" vertex="1" parent="1">
          <mxGeometry x="30" y="270" width="120" height="60" as="geometry" />
        </mxCell>
      </root>
    </mxGraphModel>
  </diagram>
</mxfile>
